<?xml version="1.0" encoding="utf-8"?>
<!-- Generator: Adobe Illustrator 26.3.1, SVG Export Plug-In . SVG Version: 6.00 Build 0)  -->
<svg version="1.2" baseProfile="tiny" id="Ebene_1" xmlns="http://www.w3.org/2000/svg" xmlns:xlink="http://www.w3.org/1999/xlink"
	 x="0px" y="0px" width="500px" height="500px" viewBox="0 0 500 500" overflow="visible" xml:space="preserve">
<g>
	<g>
		<g>
			<path fill="#CC1336" d="M272.059,262.861c-3.6,4.74-9.741,7.577-17.056,8.003l-1.484,0.049c-3.592,0.09-7.052-0.722-10.266-2.386
				c-5.223-2.804-9.143-7.511-10.98-13.243c-0.689-2.214-0.927-4.461-0.935-6.691c0.008-2.239,0.246-4.485,0.935-6.699
				c1.837-5.732,5.756-10.438,10.98-13.243c3.214-1.656,6.675-2.468,10.266-2.378l1.484,0.041
				c7.314,0.426,13.456,3.264,17.056,8.003l1.033,1.345l34.39-16.679c-5.174-9.987-13.218-18.13-23.296-23.566
				c-7.987-4.305-16.785-6.757-26.24-7.298c-1.271-0.09-2.55-0.156-3.829-0.123c-9.897-0.057-19.663,2.312-28.314,6.814
				c-20.688,10.783-32.529,31.922-32.57,53.783c0.041,21.861,11.882,42.992,32.57,53.775c8.651,4.502,18.417,6.871,28.314,6.814
				c1.279,0.033,2.558-0.033,3.829-0.123c9.454-0.533,18.253-2.993,26.24-7.298c10.078-5.436,18.122-13.579,23.296-23.566
				l-34.39-16.678L272.059,262.861z"/>
			<path fill="#CC1336" d="M401.146,265.689l-0.033-20.631c-0.115-63.008-40.311-119.021-103.507-139.357
				c-14.891-4.773-30.356-7.191-46.059-7.191c-55.693,0.107-108.09,32.201-133.576,81.793c-3.756,7.437-6.913,15.162-9.487,22.952
				c-25.198,79.12,18.474,164.096,97.381,189.442c14.587,4.69,29.823,7.076,45.411,7.076c0.049,0,0.123-0.008,0.172-0.008
				l-0.09-47.617c-10.816-0.008-21.23-1.64-30.996-4.805c-26.125-8.405-47.445-26.527-60.015-51.02
				c-12.571-24.501-14.916-52.413-6.503-78.563c13.628-42.762,54.562-71.544,99.489-71.626c10.529,0.008,21.057,1.673,31.291,4.953
				c28.839,9.249,51.569,30.708,63.115,57.973c2.977,7.536,7.339,22.254,7.339,44.411v56.964h22.492l-0.074-0.279l54.857-0.107
				l-0.591,1.066h0.238l-0.582,1.591c-18.548,53.791-59.572,96.192-112.518,116.356c-21.746,8.265-44.501,12.463-67.723,12.504
				c-79.161,0-151.107-49.765-179.118-123.867c-18.146-47.797-16.596-99.907,4.371-146.696
				c21.033-46.78,58.834-82.54,106.615-100.719c21.623-8.232,44.435-12.439,67.722-12.48
				c73.684,0.016,141.685,43.361,173.149,110.411l2.361,4.92l50.503,0.025c-3.788-11.521-8.421-22.632-13.833-33.3
				c-1.722-3.321-3.436-6.65-5.305-9.88c-0.328-0.574-0.656-1.14-0.992-1.714C414.16,56.445,335.383,10.173,250.679,10.124
				c-29.052,0.049-57.506,5.322-84.533,15.629C106.558,48.466,59.294,93.114,33.12,151.489
				c-12.964,28.945-19.975,59.507-21.033,90.231c-0.016,0.763-0.041,1.525-0.057,2.296c-0.001,0.051,0,0.102-0.001,0.153
				c-0.028,1.287-0.103,2.566-0.103,3.861c0,0.808,0.051,1.602,0.063,2.401c0,0.035,0,0.07,0,0.104
				c1.353,130.829,107.525,236.484,238.37,236.484c125.737,0,228.669-97.587,237.714-221.306L401.146,265.689z"/>
		</g>
	</g>
</g>
<g>
</g>
<g>
</g>
<g>
</g>
<g>
</g>
<g>
</g>
<g>
</g>
</svg>
